<?xml version="1.0" encoding="UTF-8" standalone="no"?>
<svg
   xmlns:dc="http://purl.org/dc/elements/1.1/"
   xmlns:cc="http://creativecommons.org/ns#"
   xmlns:rdf="http://www.w3.org/1999/02/22-rdf-syntax-ns#"
   xmlns:svg="http://www.w3.org/2000/svg"
   xmlns="http://www.w3.org/2000/svg"
   viewBox="0 0 614.40002 217.92"
   height="217.92"
   width="614.40002"
   id="svg2"
   version="1.1">
  <metadata
     id="metadata8">
    <rdf:RDF>
      <cc:Work
         rdf:about="">
        <dc:format>image/svg+xml</dc:format>
        <dc:type
           rdf:resource="http://purl.org/dc/dcmitype/StillImage" />
        <dc:title></dc:title>
      </cc:Work>
    </rdf:RDF>
  </metadata>
  <defs
     id="defs6" />
  <g
     id="g10">
    <path
       id="path837"
       d="m 241.38297,217.36 c 0.44557,-0.75988 8.53873,-26.17188 8.4257,-26.45618 -0.0752,-0.1891 -5.17837,-4.01582 -11.34042,-8.50382 l -11.20372,-8.16 14.13628,-0.0832 14.13627,-0.0832 4.42174,-13.50462 4.42173,-13.50462 4.46375,13.50455 4.46375,13.50454 14.11393,0.0833 14.11393,0.0833 -11.16795,8.12204 c -6.14237,4.46712 -11.27591,8.21828 -11.40787,8.33592 -0.13195,0.11763 1.7133,6.16146 4.10056,13.43074 2.38725,7.26927 4.28634,13.27099 4.22018,13.33715 -0.0662,0.0662 -5.21791,-3.56419 -11.44833,-8.06743 -10.29414,-7.44042 -11.38758,-8.15073 -11.98027,-7.78258 -0.35872,0.22282 -5.4974,3.91041 -11.41928,8.19464 -5.92188,4.28424 -10.86238,7.78952 -10.97888,7.78952 -0.11651,0 -0.1485,-0.108 -0.0711,-0.24 z m 312.63958,0 c 0.0771,-0.132 2.04998,-6.1334 4.38409,-13.33643 4.14736,-12.79873 4.22963,-13.10788 3.61927,-13.6 -0.34352,-0.27697 -5.46653,-4.03157 -11.38445,-8.34357 l -10.75984,-7.84 14.14397,-0.0832 14.14396,-0.0832 4.31524,-13.27153 c 2.37337,-7.29934 4.39388,-13.27388 4.49001,-13.27676 0.0961,-0.003 2.13533,5.93477 4.53155,13.19477 l 4.35681,13.2 14.15891,0.16 14.15891,0.16 -10.85046,7.90104 c -5.96778,4.34558 -11.10804,8.09169 -11.42279,8.3247 -0.53705,0.39756 -0.30525,1.23932 3.76384,13.66845 2.38487,7.28464 4.28867,13.29226 4.23066,13.35027 -0.058,0.058 -5.18989,-3.56426 -11.40416,-8.0495 -6.21428,-4.48523 -11.38855,-8.15288 -11.49837,-8.15033 -0.10983,0.003 -5.26275,3.67454 -11.45091,8.16 -6.1882,4.48545 -11.34468,8.15537 -11.45888,8.15537 -0.11421,0 -0.14455,-0.108 -0.0674,-0.24 z M 102.72,211.47964 C 89.947318,210.62252 76.187839,207.81551 65.760002,203.93962 51.172491,198.51763 39.101156,190.81153 28.291657,180.0206 18.241734,169.98794 11.658815,159.70976 6.5822287,146.12478 0.2901864,129.28724 -1.6498392,106.09797 1.6123952,86.72 5.1783006,65.538195 14.902953,47.272531 30.918664,31.674486 49.205221,13.864817 70.972662,3.788073 97.600003,0.805872 103.99573,0.089565 114.2543,-0.152884 119.48341,0.288683 c 14.80354,1.250071 29.02438,6.610467 37.7684,14.236394 4.2761,3.729323 5.26219,4.05411 7.46468,2.458632 0.71088,-0.51496 2.85649,-2.84125 4.76801,-5.169533 4.01652,-4.892206 5.03033,-5.789594 7.64619,-6.768106 1.81729,-0.67979 2.44857,-0.719448 13.09706,-0.822763 12.11348,-0.117528 13.27735,7.68e-4 14.66629,1.490618 1.71325,1.837729 1.66597,0.787392 1.66597,37.006075 0,26.162493 -0.0895,33.894573 -0.40447,34.930768 -0.22903,0.753578 -0.86618,1.73617 -1.46901,2.265453 -1.93365,1.697769 -3.50845,1.843779 -19.88652,1.843779 -16.35963,0 -17.20709,-0.0922 -19.51975,-2.122701 -1.22548,-1.075984 -2.01137,-3.186905 -2.85246,-7.661712 -0.51607,-2.745667 -2.18433,-7.40383 -4.17429,-11.655587 -3.70654,-7.919408 -9.22954,-14.588214 -15.5826,-18.815395 -6.0713,-4.039699 -12.4392,-6.159527 -20.9329,-6.968403 C 108.9457,33.317958 97.933744,36.877405 89.264569,45.032742 78.973097,54.714218 72.773836,69.524813 70.543106,89.76 c -1.138637,10.32872 -0.929513,25.64354 0.487213,35.68 3.60537,25.5414 15.013818,42.17323 33.015681,48.13196 12.19396,4.03629 27.74861,2.81343 39.50211,-3.10554 6.4325,-3.23935 14.08141,-9.93956 17.83092,-15.61934 3.86293,-5.8516 6.64276,-12.87148 7.88792,-19.91934 0.6915,-3.91405 1.12137,-5.11977 2.14029,-6.00318 1.51364,-1.31234 2.27522,-1.37558 18.03277,-1.49732 17.09633,-0.1321 19.33386,-0.0238 20.87209,1.01042 0.96736,0.65038 1.05514,0.85405 1.14204,2.64958 0.21816,4.50794 -1.93329,15.44297 -4.61823,23.47276 -4.10329,12.2716 -10.25015,22.29899 -19.14379,31.22933 -8.81724,8.85362 -17.75629,14.55796 -29.95095,19.11281 -14.58123,5.44626 -35.18128,7.90889 -55.02117,6.5775 z m 315.68001,0.0369 C 392.0714,209.61545 370.82878,202.1069 353.22686,188.48 348.76747,185.02767 341.8244,178.43136 338.4067,174.4 c -12.33363,-14.5482 -19.46768,-31.68183 -22.1179,-53.12 -0.68166,-5.5141 -0.94302,-18.89476 -0.47816,-24.48 2.08834,-25.090976 11.44783,-45.803347 28.55897,-63.200365 21.16608,-21.51972 47.14503,-32.465807 79.4704,-33.484424 15.01402,-0.473113 26.77002,1.837046 38.08001,7.483061 4.00208,1.99787 8.42832,4.76867 10.08,6.310046 0.616,0.57486 1.9536,1.712658 2.97244,2.528441 3.30749,2.648281 4.62512,2.009756 10.23008,-4.957511 3.71255,-4.61493 4.56583,-5.351395 7.46644,-6.444371 1.80723,-0.680974 2.40156,-0.716706 13.41104,-0.806294 11.46403,-0.09329 11.52697,-0.09018 12.95267,0.638838 0.84694,0.433066 1.69734,1.190487 2.08,1.852579 0.63718,1.102475 0.6487,1.654817 0.73433,35.299722 0.0615,24.16454 -0.0163,34.563817 -0.26592,35.490566 -0.47267,1.755322 -1.75132,2.958472 -3.84844,3.621192 -1.47671,0.46665 -3.64708,0.57044 -14.69264,0.70263 -15.04637,0.18005 -18.68064,-0.0573 -21.10855,-1.37876 -0.88035,-0.479145 -1.81744,-1.202057 -2.08243,-1.606467 -0.52493,-0.801177 -1.5919,-4.554902 -1.94669,-6.848883 -0.67267,-4.348928 -5.32416,-14.715248 -8.8296,-19.677584 -3.96531,-5.613344 -9.47949,-10.42696 -15.29635,-13.353005 -10.08407,-5.072557 -24.7673,-6.101104 -35.09517,-2.458393 -5.82595,2.054857 -9.73482,4.490358 -14.31101,8.91678 -7.69894,7.446964 -12.77946,17.008052 -15.90515,29.932202 -2.12064,8.76843 -2.86826,15.36362 -3.09344,27.2897 -0.24419,12.93082 0.49677,21.736 2.62918,31.2437 4.57747,20.40958 15.74794,34.54133 31.3592,39.67261 12.44871,4.09176 28.46768,2.75503 40.11904,-3.34781 4.36865,-2.28824 7.72509,-4.79817 11.73879,-8.7782 7.13526,-7.07543 11.41251,-15.45379 13.41011,-26.26797 0.47043,-2.54677 1.07152,-4.79631 1.4416,-5.39511 1.41034,-2.28195 3.21005,-2.47208 22.28106,-2.3539 13.78217,0.0854 15.7895,0.16056 16.82365,0.62989 0.64582,0.2931 1.34771,0.85701 1.55971,1.25313 0.78381,1.46461 -0.47446,10.76787 -2.57453,19.03481 -4.70765,18.53175 -15.09469,34.23502 -29.96592,45.30291 -12.77107,9.50483 -28.86774,15.25079 -48.75351,17.40334 -5.47673,0.59283 -21.48252,0.8707 -27.04,0.46942 z"
       style="fill:#000000;stroke-width:0.32" />
  </g>
</svg>
