<?xml version="1.0" encoding="UTF-8" standalone="no"?>
<svg
   xmlns:dc="http://purl.org/dc/elements/1.1/"
   xmlns:cc="http://creativecommons.org/ns#"
   xmlns:rdf="http://www.w3.org/1999/02/22-rdf-syntax-ns#"
   xmlns:svg="http://www.w3.org/2000/svg"
   xmlns="http://www.w3.org/2000/svg"
   xmlns:sodipodi="http://sodipodi.sourceforge.net/DTD/sodipodi-0.dtd"
   xmlns:inkscape="http://www.inkscape.org/namespaces/inkscape"
   inkscape:version="1.0beta2 (1:0.92.0+devel+201912071123+ea787eb)"
   sodipodi:docname="Logotype.svg"
   viewBox="0 0 614.40002 54.720001"
   height="54.720001"
   width="614.40002"
   id="svg2"
   version="1.1">
  <metadata
     id="metadata8">
    <rdf:RDF>
      <cc:Work
         rdf:about="">
        <dc:format>image/svg+xml</dc:format>
        <dc:type
           rdf:resource="http://purl.org/dc/dcmitype/StillImage" />
        <dc:title></dc:title>
      </cc:Work>
    </rdf:RDF>
  </metadata>
  <defs
     id="defs6">
    <ellipse
       style="font-variation-settings:normal;opacity:1;vector-effect:none;fill:none;fill-opacity:1;stroke:none;stroke-width:0.638062;stroke-linecap:butt;stroke-linejoin:miter;stroke-miterlimit:4;stroke-dasharray:none;stroke-dashoffset:0;stroke-opacity:1;stop-color:#000000;stop-opacity:1"
       id="path866"
       cx="84.729156"
       cy="-306.51697"
       rx="56.275372"
       ry="200.95993"
       transform="rotate(90)" />
  </defs>
  <sodipodi:namedview
     inkscape:current-layer="g10"
     inkscape:window-maximized="1"
     inkscape:window-y="30"
     inkscape:window-x="0"
     inkscape:cy="63.393312"
     inkscape:cx="461.98294"
     inkscape:zoom="2.2867838"
     showgrid="false"
     id="namedview4"
     inkscape:window-height="1017"
     inkscape:window-width="1920"
     inkscape:pageshadow="2"
     inkscape:pageopacity="0"
     guidetolerance="10"
     gridtolerance="10"
     objecttolerance="10"
     borderopacity="1"
     inkscape:document-rotation="0"
     bordercolor="#666666"
     pagecolor="#ffffff" />
  <g
     id="g10"
     inkscape:label="Image"
     inkscape:groupmode="layer">
    <g
       aria-label="THE COWBOY COLLECTIVE"
       transform="matrix(2.1273925,0,0,2.1273925,-340.43316,-40.862597)"
       id="text882"
       style="font-style:normal;font-variant:normal;font-weight:900;font-stretch:normal;font-size:12.1302px;line-height:1.25;font-family:'Besley*';-inkscape-font-specification:'Besley* Heavy';text-align:center;letter-spacing:4px;word-spacing:0px;text-anchor:middle;fill:#000000;fill-opacity:1;stroke:none;stroke-width:0.649832">
      <path
         inkscape:connector-curvature="0"
         d="m 169.05556,43.669048 -4.13301,1.119568 q -0.0937,0.02537 -0.23416,0.06343 -0.12562,0.04659 -0.17246,0.05928 -0.21074,0.05709 -0.31807,-0.01438 -0.0988,-0.08634 -0.18126,-0.390758 l -0.19981,-0.737619 q -0.0634,-0.234165 -0.0325,-0.305393 0.031,-0.07123 0.1949,-0.115629 l 0.51516,-0.13955 q 0.4332,-0.117348 0.50784,-0.212971 0.0832,-0.110501 -0.002,-0.426624 l -1.32889,-4.905751 q -0.0603,-0.222457 -0.1049,-0.248067 -0.0478,-0.03732 -0.27027,0.02294 -0.74933,0.202981 -1.00738,0.549367 -0.24635,0.343214 -0.13801,1.067909 0.007,0.07342 0.0454,0.21392 l 0.0603,0.222456 q 0.0444,0.163916 0.0495,0.275633 0.002,0.100009 -0.0929,0.213683 -0.0863,0.09879 -0.28538,0.15271 l -0.63225,0.171266 q -0.22246,0.06026 -0.30539,0.03246 -0.0744,-0.04268 -0.11563,-0.19489 -0.01,-0.03513 -0.0349,-0.128791 -0.0168,-0.108545 -0.0359,-0.178795 l -0.73264,-2.704603 q -0.0729,-0.269289 -0.0334,-0.355397 0.0363,-0.09781 0.22367,-0.14856 l 8.14893,-2.207422 q 0.37466,-0.10149 0.45224,-0.0471 0.0893,0.05122 0.19394,0.437592 l 0.647,2.38848 q 0.0254,0.09367 0.0634,0.234165 0.0498,0.137327 0.0625,0.18416 0.0539,0.19904 -0.0175,0.306371 -0.0629,0.09245 -0.36735,0.174911 l -0.45662,0.123692 q -0.18733,0.05074 -0.29905,0.05587 -0.1,0.002 -0.16904,-0.06732 -0.069,-0.06927 -0.0966,-0.124641 -0.019,-0.07025 -0.0634,-0.234165 -0.0444,-0.163915 -0.0847,-0.266118 -0.28908,-0.788839 -0.6962,-0.99274 -0.39542,-0.207073 -1.17987,0.0054 -0.18733,0.05074 -0.22684,0.136852 -0.0278,0.08294 0.0198,0.25856 l 1.25277,4.624753 q 0.0254,0.09367 0.0517,0.237337 0.0349,0.12879 0.0476,0.175623 0.0476,0.175624 0.15173,0.235381 0.10099,0.04805 0.34686,-0.01855 l 0.62054,-0.168094 q 0.26929,-0.07295 0.34686,-0.01855 0.0776,0.05439 0.17272,0.405639 l 0.14272,0.52687 q 0.10149,0.374664 0.0566,0.487359 -0.0449,0.112696 -0.32587,0.188814 z"
         style="font-style:normal;letter-spacing:4px;fill:#000000;fill-opacity:1;stroke-width:0.649832"
         id="path875" />
      <path
         inkscape:connector-curvature="0"
         d="m 178.29235,34.07405 0.30651,1.373314 q 0.037,0.165745 0.10675,0.199889 0.0698,0.03415 0.31838,-0.02134 l 2.48618,-0.554882 q 0.22494,-0.0502 0.26828,-0.134448 0.0433,-0.08425 -0.0254,-0.392057 l -0.26423,-1.183892 q -0.0449,-0.201262 -0.10549,-0.249887 -0.0606,-0.04863 -0.20263,-0.01692 l -0.60379,0.134757 q -0.23678,0.05285 -0.3039,0.03054 -0.0579,-0.03679 -0.0976,-0.214371 l -0.22988,-1.029986 q -0.0423,-0.189423 -0.008,-0.259186 0.0342,-0.06976 0.16437,-0.09883 l 4.80661,-1.072772 q 0.14206,-0.03171 0.20263,0.01692 0.0606,0.04863 0.10813,0.261726 l 0.22988,1.029987 q 0.0317,0.142067 -0.0169,0.202634 -0.0486,0.06057 -0.26173,0.108128 l -0.72217,0.16118 q -0.16574,0.03699 -0.19989,0.106756 -0.0249,0.05528 0.0279,0.292061 l 1.11505,4.996025 q 0.0581,0.260456 0.11605,0.297242 0.0553,0.02495 0.29206,-0.0279 l 0.71034,-0.158538 q 0.16574,-0.03699 0.22631,0.01163 0.0606,0.04863 0.11606,0.297242 l 0.15853,0.710335 q 0.0159,0.07103 0.037,0.165745 0.0303,0.08023 0.0356,0.103908 0.0317,0.142067 -0.0261,0.217116 -0.0486,0.06057 -0.26172,0.108128 l -4.58167,1.022569 q -0.26045,0.05813 -0.31838,0.02134 -0.0579,-0.03679 -0.12134,-0.320921 l -0.2061,-0.923436 q -0.0449,-0.201261 -0.02,-0.256544 0.0368,-0.05792 0.17886,-0.08963 l 0.61562,-0.1374 q 0.23678,-0.05285 0.27621,-0.09893 0.0486,-0.06057 0.006,-0.249989 l -0.37521,-1.681127 q -0.0423,-0.189423 -0.11468,-0.235406 -0.0606,-0.04863 -0.17896,-0.0222 -0.0355,0.0079 -0.11575,0.03826 -0.0829,0.0185 -0.14206,0.03171 l -2.32043,0.51789 q -0.2723,0.06077 -0.32092,0.12134 -0.0486,0.06057 -0.004,0.261829 l 0.35671,1.598254 q 0.0555,0.248617 0.1279,0.2946 0.0816,0.0315 0.38941,-0.0372 l 0.44988,-0.100408 q 0.20126,-0.04492 0.25654,-0.01997 0.0553,0.02495 0.0896,0.178853 l 0.24837,1.112859 q 0.0396,0.177584 0.003,0.235509 -0.0394,0.04609 -0.26437,0.09629 l -4.60534,1.027853 q -0.23678,0.05285 -0.30918,0.0069 -0.0632,-0.06046 -0.12927,-0.356437 l -0.20874,-0.935275 q -0.0343,-0.153906 0.0169,-0.202634 0.0486,-0.06057 0.26172,-0.108129 l 0.59195,-0.132115 q 0.24862,-0.05549 0.29724,-0.116055 0.0578,-0.07505 0.0208,-0.240793 l -1.14147,-5.114414 q -0.0449,-0.201262 -0.10284,-0.238048 -0.0461,-0.03943 -0.17632,-0.01036 l -0.75769,0.169107 q -0.23678,0.05285 -0.2947,0.01606 -0.0606,-0.04863 -0.12399,-0.33276 L 173.86917,33.4703 q -0.0608,-0.272296 -0.0266,-0.342059 0.0315,-0.0816 0.23276,-0.126522 l 4.70006,-1.048991 q 0.17758,-0.03963 0.24079,0.02083 0.0606,0.04863 0.11605,0.297242 l 0.21667,0.970792 q 0.037,0.165745 2.1e-4,0.22367 -0.0394,0.04609 -0.26437,0.09629 l -0.62746,0.140042 q -0.15391,0.03435 -0.18805,0.104113 -0.025,0.05528 0.0226,0.268384 z"
         style="font-style:normal;letter-spacing:4px;fill:#000000;fill-opacity:1;stroke-width:0.649832"
         id="path877" />
      <path
         inkscape:connector-curvature="0"
         d="m 191.40296,30.981112 -0.5607,0.103206 q -0.28631,0.0527 -0.36668,0.01816 -0.0825,-0.04647 -0.12208,-0.26121 l -0.17567,-0.954383 q -0.0395,-0.214737 -0.003,-0.283169 0.0367,-0.06843 0.17989,-0.09478 l 8.51787,-1.567852 q 0.27439,-0.05051 0.33309,3.6e-4 0.0587,0.05087 0.11579,0.36104 l 0.49187,2.672273 q 0.009,0.04772 0.0242,0.131228 0.0251,0.06938 0.0295,0.09324 0.0198,0.107369 -0.0192,0.163871 -0.0411,0.04457 -0.20815,0.07531 l -0.90666,0.166887 q -0.1193,0.02196 -0.19307,0.0232 -0.0618,-9.51e-4 -0.10957,0.0078 -0.0499,-0.0031 -0.0847,-0.0584 -0.0229,-0.05745 -0.037,-0.06719 -0.004,-0.02386 -0.0383,-0.140961 -0.0241,-0.131228 -0.0329,-0.178947 -0.20458,-0.776387 -0.61957,-1.020685 -0.40525,-0.258425 -1.29998,-0.09373 l -1.44351,0.2657 q -0.34596,0.06368 -0.28667,0.385785 l 0.28985,1.574732 q 0.0329,0.178947 0.07,0.246134 0.049,0.06499 0.15634,0.04523 0.0835,-0.01537 0.19622,-0.07312 0.68504,-0.298769 0.77681,-1.006363 0.008,-0.0879 6.5e-4,-0.197464 -0.01,-0.121494 -0.007,-0.171409 0.003,-0.04992 0.0681,-0.09888 0.0628,-0.06089 0.20595,-0.08724 l 0.41754,-0.07686 q 0.27439,-0.0505 0.35695,-0.004 0.0923,0.03235 0.13621,0.270943 l 0.60386,3.280693 q 0.0461,0.250525 -0.0264,0.325546 -0.0725,0.07502 -0.4185,0.1387 l -0.35789,0.06588 q -0.13123,0.02416 -0.2094,0.0015 -0.0662,-0.02481 -0.087,-0.07033 -0.0207,-0.04552 -0.0524,-0.150695 -0.0198,-0.107369 -0.0568,-0.174556 -0.29533,-0.59934 -0.91187,-0.732534 -0.28222,-0.05906 -0.38959,-0.0393 -0.19088,0.03513 -0.12939,0.369168 l 0.30742,1.67017 q 0.0351,0.190877 0.10576,0.239547 0.0706,0.04867 0.20186,0.02452 0.0358,-0.0066 0.13122,-0.02416 0.10518,-0.03169 0.17676,-0.04487 l 1.10947,-0.204216 q 1.08561,-0.199824 1.3927,-0.675705 0.31683,-0.490006 0.16377,-1.522556 -0.0408,-0.288511 0.008,-0.359139 0.0465,-0.08256 0.26121,-0.122084 l 0.9186,-0.169082 q 0.19087,-0.03513 0.2615,0.01354 0.0684,0.03674 0.0904,0.156037 0.007,0.03579 0.01,0.121494 0.0154,0.08351 0.0264,0.143158 l 0.5314,2.887009 q 0.0659,0.357894 0.007,0.442648 -0.0465,0.08256 -0.36857,0.141846 l -8.5298,1.570048 q -0.16702,0.03074 -0.22572,-0.02012 -0.0587,-0.05087 -0.10262,-0.289461 l -0.17567,-0.954383 q -0.0373,-0.202807 -0.0103,-0.257114 0.027,-0.05431 0.17016,-0.08066 l 0.71579,-0.131752 q 0.27439,-0.0505 0.31332,-0.107008 0.0509,-0.0587 0.007,-0.297294 l -0.92446,-5.022442 q -0.0483,-0.262456 -0.10481,-0.301391 -0.0587,-0.05087 -0.28537,-0.0091 z"
         style="font-style:normal;letter-spacing:4px;fill:#000000;fill-opacity:1;stroke-width:0.649832"
         id="path879" />
      <path
         inkscape:connector-curvature="0"
         d="m 222.30337,30.390121 q 0.01,1.578295 -0.97985,2.657896 -0.99136,1.067585 -2.90192,1.331493 -2.29507,0.317021 -3.87856,-0.774506 -1.58348,-1.091527 -1.8839,-3.266443 -0.27885,-2.018706 0.96351,-3.574042 1.25272,-1.569012 3.42763,-1.869435 1.06944,-0.147722 1.93719,0.283457 0.0787,0.03811 0.16079,0.100243 0.0941,0.06048 0.14712,0.08989 0.053,0.02941 0.10111,0.02277 0.0721,-0.01 0.174,-0.158734 l 0.20918,-0.347274 q 0.11929,-0.200159 0.51583,-0.254933 l 0.63685,-0.08797 q 0.22831,-0.03154 0.30001,0.04428 0.07,0.0638 0.10157,0.292103 l 0.38009,2.751689 q 0.0315,0.228306 -0.0683,0.303325 -0.0998,0.07502 -0.35218,0.109874 l -1.03339,0.142743 q -0.18024,0.0249 -0.283,-0.0099 -0.10277,-0.03479 -0.13344,-0.07953 -0.0307,-0.04474 -0.0866,-0.183959 -0.0456,-0.15289 -0.0796,-0.221667 -0.72045,-1.492382 -2.23448,-1.283248 -0.96129,0.132784 -1.42188,1.053582 -0.44857,0.919138 -0.23777,2.445183 0.21079,1.526046 0.91079,2.249795 0.69999,0.723749 1.74539,0.579347 0.82911,-0.114526 1.35483,-0.652468 0.53773,-0.539602 0.62044,-1.359222 0.002,-0.07376 0.002,-0.159529 0.0108,-0.09945 0.006,-0.135497 0.007,-0.03771 0.0261,-0.07708 0.0174,-0.05138 0.0518,-0.06838 0.0447,-0.03067 0.11518,-0.05265 0.0704,-0.02198 0.19059,-0.03857 l 1.12952,-0.15602 q 0.20427,-0.02822 0.26933,-4.68e-4 0.0754,0.01407 0.0887,0.110203 0.003,0.02403 0.009,0.243641 z"
         style="font-style:normal;letter-spacing:4px;fill:#000000;fill-opacity:1;stroke-width:0.649832"
         id="path881" />
      <path
         inkscape:connector-curvature="0"
         d="m 228.52804,31.75066 q -1.49685,-1.163347 -1.73499,-3.297146 -0.23814,-2.133798 0.96541,-3.598518 1.21561,-1.466065 3.5664,-1.728421 2.3508,-0.262355 3.84765,0.900993 1.5089,1.162002 1.74704,3.2958 0.23679,2.121743 -1.01363,3.6039 -1.23972,1.468756 -3.51818,1.723039 -2.3508,0.262356 -3.8597,-0.899647 z m 2.97173,-7.056888 q -1.92886,0.215266 -1.57233,3.409935 0.35654,3.19467 2.28539,2.979404 1.06088,-0.118396 1.40473,-0.97454 0.3425,-0.868199 0.1676,-2.435396 -0.35654,-3.194669 -2.28539,-2.979403 z"
         style="font-style:normal;letter-spacing:4px;fill:#000000;fill-opacity:1;stroke-width:0.649832"
         id="path883" />
      <path
         inkscape:connector-curvature="0"
         d="m 247.27564,27.015483 q 0.0607,-0.297126 0.15759,-0.597247 0.0969,-0.300122 0.15648,-0.46327 0.0706,-0.176236 0.19985,-0.527709 0.14129,-0.352471 0.19175,-0.478354 l 0.35023,-0.917445 q 0.0696,-0.188325 -0.005,-0.352579 l -0.0734,-0.152166 q -0.0583,-0.116896 -0.0956,-0.12599 -0.0383,-0.02118 -0.20751,-0.0072 l -0.5561,0.04593 q -0.19342,0.01598 -0.27095,-0.03848 -0.0654,-0.05545 -0.0774,-0.200521 -0.004,-0.04836 -0.013,-0.157158 0.002,-0.121888 -0.004,-0.194423 l -0.0519,-0.62863 q -0.021,-0.253869 0.0224,-0.318308 0.0545,-0.07753 0.23579,-0.0925 l 4.24325,-0.350457 q 0.21761,-0.01797 0.25787,0.02739 0.0524,0.04436 0.0723,0.286143 l 0.0779,0.942945 q 0.019,0.229692 -0.0244,0.294131 -0.0313,0.06344 -0.20052,0.07742 l -0.3264,0.02696 q -0.27805,0.02296 -0.26906,0.131766 0.002,0.02418 0.0322,0.09472 l 0.49779,1.163866 q 0.45452,1.082238 0.73902,1.874231 0.24125,0.710366 0.30169,0.705374 0.0605,-0.005 0.18487,-0.709045 0.13252,-0.753406 0.41842,-1.860283 l 0.35865,-1.405001 q 0.0283,-0.09971 0.0253,-0.135974 -0.004,-0.04836 -0.19742,-0.03238 l -0.5561,0.04593 q -0.22969,0.01897 -0.29712,-0.06066 -0.0674,-0.07963 -0.0884,-0.333501 l -0.0739,-0.894589 q -0.015,-0.181335 0.0163,-0.244776 0.0424,-0.07653 0.18743,-0.08851 l 3.62672,-0.299536 q 0.16924,-0.01398 0.2105,0.04347 0.0523,0.04436 0.0713,0.274055 l 0.0579,0.701164 q 0.005,0.06044 0.0271,0.180337 0.0211,0.107803 0.0251,0.156159 0.021,0.25387 -0.23291,0.274837 l -0.87041,0.07189 q -0.15715,0.01298 -0.22669,0.05524 -0.0584,0.02917 -0.0796,0.06743 -0.009,0.03727 -0.0455,0.186328 l -1.82252,7.112623 q -0.0737,0.286036 -0.14328,0.328294 -0.0806,0.05534 -0.32241,0.07531 l -0.91877,0.07588 q -0.12089,0.01 -0.20651,0.0049 -0.0735,-0.0061 -0.12688,-0.06255 -0.0523,-0.04436 -0.0775,-0.05446 -0.0141,-0.02318 -0.0593,-0.128986 -0.0463,-0.117895 -0.0613,-0.153163 l -1.13653,-2.413461 q -0.48481,-1.006709 -0.74823,-1.690899 -0.25034,-0.6731 -0.32287,-0.667109 -0.0121,9.98e-4 -0.0232,0.01409 -0.0121,9.99e-4 -0.0222,0.02617 -0.0101,0.02518 -0.0202,0.05035 -0.0111,0.01309 -0.0313,0.06344 -0.009,0.03727 -0.0303,0.07553 -0.009,0.03727 -0.0283,0.09971 -0.007,0.06144 -0.0273,0.111797 -0.008,0.04935 -0.0374,0.136973 -0.0182,0.07453 -0.0374,0.136973 -0.20405,0.771487 -0.61483,1.839992 l -1.00023,2.626454 q -0.0999,0.263854 -0.18055,0.3192 -0.0796,0.06743 -0.43022,0.09639 l -0.74952,0.0619 q -0.1088,0.009 -0.18133,0.01498 -0.0605,0.005 -0.12289,-0.01419 -0.0504,-0.02018 -0.0876,-0.02928 -0.0242,0.002 -0.0654,-0.05545 -0.0282,-0.04636 -0.0412,-0.05745 -0.002,-0.02418 -0.0453,-0.105806 -0.0312,-0.08263 -0.0462,-0.117895 l -3.02929,-6.614534 q -0.10459,-0.234791 -0.2043,-0.263071 -0.0886,-0.04137 -0.42711,-0.01341 l -0.39894,0.03295 q -0.29014,0.02396 -0.36666,-0.0184 -0.0775,-0.05445 -0.0955,-0.272057 l -0.0819,-0.991301 q -0.018,-0.217603 0.0264,-0.269953 0.0323,-0.05135 0.17735,-0.06333 l 4.83561,-0.399381 q 0.26596,-0.02197 0.31931,0.03449 0.0654,0.05545 0.0894,0.34559 l 0.0579,0.701164 q 0.006,0.07253 0.014,0.169246 0.0201,0.09571 0.0221,0.119892 0.01,0.120891 -0.0455,0.186328 -0.0565,0.05335 -0.23778,0.06833 l -0.25387,0.02097 q -0.35059,0.02895 -0.3406,0.149845 0.003,0.03627 0.0191,0.08363 0.0282,0.04636 0.0593,0.128986 0.0422,0.06954 0.0714,0.127987 l 0.42736,1.047968 q 0.2906,0.71846 0.74502,1.946765 0.14175,0.389953 0.26264,0.379968 0.12089,-0.01 0.22092,-0.419906 z"
         style="font-style:normal;letter-spacing:4px;fill:#000000;fill-opacity:1;stroke-width:0.649832"
         id="path885" />
      <path
         inkscape:connector-curvature="0"
         d="m 267.57302,29.509 -4.96548,0.280274 q -0.0727,0.0041 -0.18167,0.01025 -0.0962,0.01758 -0.13253,0.01963 -0.16956,0.0096 -0.23421,-0.05968 -0.0653,-0.08136 -0.0797,-0.335688 l -0.0485,-0.859875 q -0.0123,-0.217997 0.032,-0.293397 0.0437,-0.08751 0.23744,-0.09845 l 0.75088,-0.04238 q 0.18166,-0.01025 0.22805,-0.04932 0.0578,-0.05186 0.051,-0.172971 l -0.296,-5.24403 q -0.0144,-0.254329 -0.0655,-0.300038 -0.0398,-0.0585 -0.22142,-0.04825 l -0.65399,0.03691 q -0.31488,0.01777 -0.36606,-0.02794 -0.0519,-0.05782 -0.069,-0.360593 l -0.052,-0.92043 q -0.0109,-0.193775 0.0227,-0.24427 0.045,-0.06329 0.17825,-0.07081 l 4.9897,-0.281642 q 2.14363,-0.120996 3.09209,0.323598 0.96057,0.443911 1.03098,1.691336 0.0779,1.380645 -1.46778,1.978172 -0.49909,0.198264 -0.49567,0.258818 0.003,0.06056 0.51823,0.140842 2.08142,0.283449 2.17233,1.894202 0.0807,1.429089 -0.83254,2.039512 -0.9132,0.610423 -3.14161,0.736205 z m -0.33451,-1.621303 q 0.73877,-0.0417 1.01166,-0.37299 0.285,-0.331974 0.25218,-0.913298 -0.0581,-1.029428 -1.3903,-0.954233 l -0.67822,0.03828 q -0.31488,0.01777 -0.39555,0.09522 -0.0686,0.07677 -0.0515,0.37954 l 0.0848,1.501754 q 0.0109,0.193775 0.0621,0.239484 0.0633,0.04503 0.20862,0.03682 z m -0.9454,-3.83448 0.48443,-0.02734 q 1.21109,-0.06836 1.15299,-1.097788 -0.0294,-0.520769 -0.31888,-0.698821 -0.27738,-0.178736 -0.94348,-0.141138 l -0.52077,0.02939 q -0.26644,0.01504 -0.32358,0.07901 -0.0578,0.05186 -0.0435,0.306191 l 0.0629,1.114205 q 0.0171,0.302773 0.0824,0.384132 0.0768,0.06856 0.36743,0.05216 z"
         style="font-style:normal;letter-spacing:4px;fill:#000000;fill-opacity:1;stroke-width:0.649832"
         id="path887" />
      <path
         inkscape:connector-curvature="0"
         d="m 277.43502,27.949948 q -1.40483,-1.272953 -1.48132,-3.418635 -0.0765,-2.145683 1.23413,-3.515435 1.32274,-1.370185 3.68663,-1.454452 2.36388,-0.08427 3.76871,1.188685 1.41694,1.272521 1.49343,3.418203 0.0761,2.13356 -1.28261,3.517164 -1.34699,1.371048 -3.63814,1.452723 -2.36389,0.08427 -3.78083,-1.188253 z m 3.49562,-6.812597 q -1.9396,0.06914 -1.82509,3.281605 0.11452,3.212463 2.05412,3.14332 1.06678,-0.03803 1.47424,-0.865793 0.40702,-0.839887 0.35084,-2.415812 -0.11451,-3.212463 -2.05411,-3.14332 z"
         style="font-style:normal;letter-spacing:4px;fill:#000000;fill-opacity:1;stroke-width:0.649832"
         id="path889" />
      <path
         inkscape:connector-curvature="0"
         d="m 290.83885,21.145995 -0.55793,0.0084 q -0.18193,0.0027 -0.23099,-0.03292 -0.0614,-0.04761 -0.0632,-0.168893 l -0.0166,-1.103724 q -0.003,-0.20619 0.11728,-0.268656 0.10825,-0.06228 0.3387,-0.06574 l 4.82727,-0.07249 q 0.29109,-0.0044 0.35265,0.05536 0.0614,0.0476 0.0652,0.30231 l 0.0158,1.055208 q 0.002,0.133417 -0.0579,0.182844 -0.048,0.03712 -0.25416,0.04021 l -0.73986,0.01111 q -0.10916,0.0016 -0.10843,0.05015 5.5e-4,0.03639 0.0377,0.08436 0.0493,0.04779 0.12329,0.131596 0.074,0.08381 0.11135,0.143906 l 0.44647,0.6484 q 0.33477,0.480235 0.55928,0.889337 0.19953,0.360951 0.24804,0.360222 0.0607,-9.1e-4 0.22681,-0.246037 0.14263,-0.196247 0.40418,-0.55199 0.26155,-0.355744 0.35676,-0.478489 l 0.53523,-0.711669 q 0.21432,-0.270113 0.21395,-0.294371 -10e-4,-0.07277 -0.32857,-0.06785 l -0.43664,0.0066 q -0.27896,0.0042 -0.35246,-0.04323 -0.0737,-0.05955 -0.0768,-0.265741 l -0.0164,-1.091595 q -0.004,-0.242577 0.21468,-0.245855 0.0364,-5.47e-4 0.12147,0.01031 0.097,-0.0015 0.15768,-0.0024 l 3.67503,-0.05519 q 0.12129,-0.0018 0.15841,0.04615 0.0371,0.04797 0.0398,0.229901 l 0.0173,1.15224 q 0.002,0.121288 -0.046,0.170532 -0.048,0.03712 -0.2299,0.03985 l -0.36387,0.0055 q -0.23044,0.0035 -0.30267,0.04094 -0.0722,0.03748 -0.1792,0.184665 l -2.45191,3.142503 q -0.0118,0.02444 -0.0596,0.07368 -0.0357,0.04906 -0.0474,0.0735 -0.012,0.01231 -0.0476,0.06137 -0.0358,0.03693 -0.0476,0.06137 1.8e-4,0.01213 -0.0233,0.06101 -0.0235,0.04888 -0.0351,0.08545 3.6e-4,0.02426 -0.0232,0.07314 -0.0114,0.0487 -0.0105,0.109341 7.3e-4,0.04852 -0.0103,0.121471 9.1e-4,0.06064 0.002,0.133417 l 0.0204,1.358429 q 0.003,0.181933 0.0764,0.241484 0.0735,0.04742 0.34033,0.04341 l 0.70347,-0.01056 q 0.23045,-0.0035 0.2797,0.04433 0.0612,0.03548 0.0639,0.217408 l 0.0151,1.006693 q 0.004,0.242577 -0.0804,0.304496 -0.0719,0.06174 -0.39934,0.06666 l -4.85154,0.07286 q -0.19406,0.0029 -0.25579,-0.06895 -0.0496,-0.07204 -0.0538,-0.351008 l -0.0153,-1.018822 q -0.002,-0.121288 0.0462,-0.158403 0.048,-0.03712 0.2299,-0.03985 l 0.61857,-0.0093 q 0.32748,-0.0049 0.37508,-0.06629 0.0597,-0.06155 0.0546,-0.401163 l -0.01,-0.654957 q -0.001,-0.09703 -0.0147,-0.169621 -0.001,-0.0849 -0.0266,-0.157311 -0.0132,-0.07259 -0.0259,-0.108795 -0.0127,-0.0362 -0.05,-0.0963 -0.0375,-0.07223 -0.0498,-0.08417 -0.0125,-0.02408 -0.0742,-0.09594 -0.0619,-0.08399 -0.0744,-0.108067 l -2.54105,-3.60131 q -0.11153,-0.156036 -0.19698,-0.191147 -0.0856,-0.04724 -0.35246,-0.04323 z"
         style="font-style:normal;letter-spacing:4px;fill:#000000;fill-opacity:1;stroke-width:0.649832"
         id="path891" />
      <path
         inkscape:connector-curvature="0"
         d="m 322.74475,25.438315 q -0.23018,1.561451 -1.37248,2.47807 -1.14211,0.904491 -3.07058,0.874921 -2.3166,-0.03552 -3.71577,-1.35506 -1.39916,-1.319538 -1.3655,-3.514847 0.0312,-2.037634 1.49558,-3.386054 1.47666,-1.360363 3.67196,-1.326701 1.07946,0.01655 1.87159,0.574621 0.072,0.04963 0.14369,0.12352 0.0838,0.07407 0.13174,0.111205 0.048,0.03713 0.0965,0.03787 0.0728,0.0011 0.1961,-0.130441 l 0.25954,-0.311443 q 0.14834,-0.1797 0.54859,-0.173562 l 0.64282,0.0099 q 0.23045,0.0035 0.28979,0.08937 0.0595,0.0737 0.056,0.30415 l -0.0426,2.777489 q -0.004,0.230447 -0.11362,0.289417 -0.11009,0.05897 -0.36479,0.05506 l -1.04308,-0.01599 q -0.18193,-0.0028 -0.27821,-0.05279 -0.0963,-0.05 -0.1198,-0.09889 -0.0235,-0.04889 -0.0577,-0.194991 -0.0218,-0.158046 -0.045,-0.23119 -0.48523,-1.584552 -2.01346,-1.607985 -0.9703,-0.01488 -1.5655,0.825209 -0.58307,0.840273 -0.60669,2.380628 -0.0236,1.540354 0.55823,2.362095 0.58185,0.821741 1.63705,0.837921 0.83689,0.01283 1.43826,-0.438949 0.61351,-0.451594 0.81984,-1.249118 0.0133,-0.07259 0.0267,-0.157302 0.0258,-0.09666 0.0263,-0.133044 0.0127,-0.0362 0.0375,-0.07221 0.025,-0.04814 0.0616,-0.05971 0.0489,-0.02351 0.12185,-0.03453 0.073,-0.01101 0.19424,-0.0092 l 1.14011,0.01748 q 0.20619,0.0032 0.26627,0.04048 0.0724,0.02537 0.0709,0.122404 -3.7e-4,0.02426 -0.028,0.242203 z"
         style="font-style:normal;letter-spacing:4px;fill:#000000;fill-opacity:1;stroke-width:0.649832"
         id="path893" />
      <path
         inkscape:connector-curvature="0"
         d="m 328.68393,27.703121 q -1.31049,-1.369872 -1.2338,-3.515547 0.0767,-2.145676 1.48162,-3.418501 1.41706,-1.272392 3.78094,-1.187909 2.36388,0.08448 3.67437,1.454354 1.32262,1.370305 1.24593,3.51598 -0.0763,2.133554 -1.53011,3.416768 -1.44131,1.271525 -3.73245,1.189642 -2.36388,-0.08448 -3.6865,-1.454787 z m 3.97244,-6.546037 q -1.93959,-0.06932 -2.0544,3.143133 -0.11481,3.212452 1.82478,3.281771 1.06678,0.03813 1.53221,-0.758482 0.46587,-0.808731 0.52219,-2.384651 0.11481,-3.212452 -1.82478,-3.281771 z"
         style="font-style:normal;letter-spacing:4px;fill:#000000;fill-opacity:1;stroke-width:0.649832"
         id="path895" />
      <path
         inkscape:connector-curvature="0"
         d="m 343.45474,21.923799 -0.60555,-0.03418 q -0.25433,-0.01436 -0.335,-0.09181 -0.0807,-0.07745 -0.0711,-0.247004 0.003,-0.04844 0.0103,-0.181664 0.0196,-0.132536 0.0244,-0.217313 l 0.0301,-0.53288 q 0.0157,-0.278552 0.0669,-0.324261 0.0519,-0.05782 0.30619,-0.04346 l 4.80803,0.271409 q 0.0727,0.0041 0.18167,0.01025 0.10968,-0.006 0.14601,-0.0039 0.14533,0.0082 0.20179,0.08429 0.0571,0.06397 0.0448,0.281969 l -0.0547,0.968874 q -0.0116,0.205885 -0.0877,0.262338 -0.0761,0.05645 -0.37886,0.03936 l -0.58132,-0.03282 q -0.37544,-0.02119 -0.46432,0.04669 -0.0882,0.05577 -0.10528,0.358542 l -0.2509,4.444708 q -0.006,0.108998 -0.0271,0.265757 -0.009,0.157442 -0.0123,0.217996 -0.015,0.26644 0.0885,0.369481 0.11632,0.09161 0.51598,0.114173 l 0.41177,0.02324 q 0.95677,0.05401 1.48662,-0.292717 0.54196,-0.346042 0.72919,-1.295284 0.0183,-0.108315 0.0299,-0.3142 0.0244,-0.217313 0.0406,-0.289295 0.029,-0.08341 0.14211,-0.149922 0.12521,-0.06583 0.35532,-0.05284 l 0.5571,0.03145 q 0.27855,0.01572 0.35991,0.08106 0.0814,0.06534 0.0704,0.259115 -0.002,0.03633 -0.0203,0.144647 -0.006,0.108999 -0.0103,0.181664 l -0.16271,2.882399 q -0.0273,0.484437 -0.1169,0.564428 -0.0896,0.07999 -0.574,0.05264 l -7.8721,-0.444372 q -0.19378,-0.01094 -0.25023,-0.08702 -0.0565,-0.07608 -0.04,-0.366746 l 0.0479,-0.847764 q 0.0137,-0.242219 0.0527,-0.288611 0.0519,-0.05782 0.23353,-0.04757 l 0.65399,0.03692 q 0.26644,0.01504 0.34184,-0.0293 0.0761,-0.05645 0.0863,-0.238117 l 0.29875,-5.292472 q 0.008,-0.13322 -0.0503,-0.185082 -0.0578,-0.05186 -0.25159,-0.0628 z"
         style="font-style:normal;letter-spacing:4px;fill:#000000;fill-opacity:1;stroke-width:0.649832"
         id="path897" />
      <path
         inkscape:connector-curvature="0"
         d="m 357.154,22.76696 -0.60472,-0.04663 q -0.25398,-0.01958 -0.33304,-0.09868 -0.0791,-0.07909 -0.066,-0.248414 0.004,-0.04838 0.014,-0.181414 0.0224,-0.132105 0.0289,-0.216765 l 0.041,-0.53215 q 0.0214,-0.278169 0.0736,-0.322816 0.053,-0.05674 0.30702,-0.03716 l 4.80144,0.370212 q 0.0726,0.0056 0.18141,0.01399 0.10978,-0.0037 0.14607,-9.04e-4 0.14513,0.01119 0.2,0.08842 0.0558,0.06513 0.039,0.282832 l -0.0746,0.967544 q -0.0159,0.205603 -0.0931,0.26048 -0.0772,0.05488 -0.37959,0.03156 l -0.58053,-0.04476 q -0.37492,-0.02891 -0.46518,0.03713 -0.0893,0.05394 -0.11263,0.356301 l -0.34224,4.438609 q -0.008,0.108849 -0.0326,0.265142 -0.0121,0.157226 -0.0168,0.217698 -0.0205,0.266075 0.0809,0.371222 0.11442,0.09398 0.51353,0.124758 l 0.4112,0.03171 q 0.95545,0.07367 1.49232,-0.262088 0.54897,-0.334825 0.75567,-1.280017 0.0205,-0.107916 0.0363,-0.313519 0.0289,-0.216765 0.0466,-0.288399 0.0307,-0.0828 0.14516,-0.146968 0.12654,-0.06324 0.35633,-0.04552 l 0.55634,0.0429 q 0.27817,0.02145 0.35817,0.08845 0.08,0.067 0.0651,0.260508 -0.003,0.03628 -0.0233,0.144199 -0.008,0.108849 -0.014,0.181415 l -0.22194,2.878444 q -0.0373,0.483772 -0.12849,0.561904 -0.0912,0.07813 -0.57496,0.04083 l -7.8613,-0.606141 q -0.1935,-0.01492 -0.24838,-0.09215 -0.0549,-0.07723 -0.0325,-0.367492 l 0.0653,-0.846601 q 0.0187,-0.241886 0.0587,-0.287466 0.053,-0.05674 0.23446,-0.04275 l 0.65309,0.05036 q 0.26607,0.02051 0.34237,-0.02227 0.0772,-0.05488 0.0912,-0.236291 l 0.40751,-5.28521 q 0.0103,-0.133037 -0.0465,-0.186077 -0.0567,-0.05304 -0.25025,-0.06796 z"
         style="font-style:normal;letter-spacing:4px;fill:#000000;fill-opacity:1;stroke-width:0.649832"
         id="path899" />
      <path
         inkscape:connector-curvature="0"
         d="m 370.83127,23.893627 -0.56732,-0.05636 q -0.2897,-0.02878 -0.35733,-0.08426 -0.0664,-0.06755 -0.0448,-0.284823 l 0.0959,-0.965662 q 0.0216,-0.217274 0.0759,-0.272831 0.0543,-0.05556 0.19913,-0.04117 l 8.61853,0.856241 q 0.27763,0.02758 0.31992,0.09273 0.0423,0.06515 0.0111,0.378991 l -0.26863,2.703854 q -0.005,0.04828 -0.0132,0.132778 0.005,0.07362 0.002,0.09777 -0.0108,0.108637 -0.0639,0.152123 -0.0519,0.03141 -0.22087,0.01463 l -0.91738,-0.09114 q -0.1207,-0.01199 -0.19193,-0.03126 -0.0591,-0.01807 -0.10744,-0.02286 -0.0471,-0.01687 -0.0652,-0.07962 -0.006,-0.06155 -0.0169,-0.07482 0.002,-0.02414 0.002,-0.146049 0.0132,-0.132778 0.018,-0.181061 0.0188,-0.802668 -0.31215,-1.152484 -0.31768,-0.360689 -1.22299,-0.45063 l -1.46056,-0.145105 q -0.35005,-0.03478 -0.38243,0.291133 l -0.1583,1.593343 q -0.018,0.181062 -10e-4,0.255885 0.029,0.07602 0.13765,0.08681 0.0845,0.0084 0.20881,-0.01583 0.74103,-0.09704 1.02546,-0.751415 0.0325,-0.0821 0.0554,-0.189535 0.0241,-0.119508 0.0409,-0.166592 0.0169,-0.04708 0.0929,-0.0761 0.0772,-0.04109 0.22207,-0.0267 l 0.42248,0.04197 q 0.27763,0.02758 0.34406,0.09513 0.0797,0.05668 0.0557,0.298093 l -0.32978,3.319464 q -0.0252,0.253486 -0.11568,0.305446 -0.0905,0.05196 -0.44054,0.01718 l -0.36213,-0.03598 q -0.13278,-0.01319 -0.2016,-0.0566 -0.0568,-0.04221 -0.064,-0.09169 -0.007,-0.04948 -0.009,-0.159318 0.0108,-0.108637 -0.006,-0.18346 -0.1175,-0.65774 -0.67291,-0.956718 -0.25477,-0.135019 -0.3634,-0.145812 -0.19314,-0.01919 -0.22672,0.318794 l -0.16789,1.689909 q -0.0192,0.193132 0.0352,0.259482 0.0544,0.06635 0.18714,0.07954 0.0362,0.0036 0.13278,0.01319 0.10984,-0.0013 0.18226,0.0059 l 1.12258,0.111527 q 1.09844,0.109129 1.52548,-0.262902 0.44031,-0.382903 0.57965,-1.417392 0.0409,-0.2885 0.10721,-0.342858 0.0675,-0.06643 0.28482,-0.04484 l 0.92945,0.09234 q 0.19313,0.01919 0.24749,0.08554 0.0556,0.05428 0.0436,0.174987 -0.004,0.03621 -0.0241,0.119508 -0.008,0.0845 -0.0144,0.14485 l -0.29021,2.921128 q -0.036,0.362123 -0.1156,0.427352 -0.0676,0.06643 -0.39346,0.03405 l -8.6306,-0.85744 q -0.16899,-0.01679 -0.21128,-0.08194 -0.0423,-0.06515 -0.0183,-0.306566 l 0.0959,-0.965662 q 0.0204,-0.205204 0.0614,-0.249889 0.041,-0.04469 0.18586,-0.0303 l 0.72425,0.07195 q 0.27762,0.02758 0.3307,-0.0159 0.0652,-0.04229 0.0891,-0.283703 l 0.50487,-5.081796 q 0.0264,-0.265558 -0.0171,-0.318637 -0.0423,-0.06515 -0.27164,-0.08794 z"
         style="font-style:normal;letter-spacing:4px;fill:#000000;fill-opacity:1;stroke-width:0.649832"
         id="path901" />
      <path
         inkscape:connector-curvature="0"
         d="m 393.06366,30.699689 q -0.39794,1.527335 -1.6328,2.314844 -1.23335,0.775472 -3.14728,0.537208 -2.29912,-0.286216 -3.54714,-1.749532 -1.24802,-1.463316 -0.97679,-3.642064 0.25175,-2.022264 1.85352,-3.204154 1.6153,-1.192428 3.79405,-0.921197 1.07132,0.133368 1.79835,0.773948 0.0662,0.05714 0.12946,0.138355 0.0753,0.08271 0.11892,0.124819 0.0437,0.04211 0.0918,0.0481 0.0722,0.009 0.20908,-0.108434 l 0.29174,-0.281501 q 0.16693,-0.162577 0.56416,-0.113126 l 0.63797,0.07942 q 0.22871,0.02847 0.27841,0.120225 0.0512,0.07972 0.0227,0.308425 l -0.34316,2.756538 q -0.0285,0.228708 -0.1443,0.275408 -0.11583,0.0467 -0.36861,0.01523 l -1.03521,-0.128872 q -0.18056,-0.02248 -0.27086,-0.08262 -0.0903,-0.06014 -0.10838,-0.111284 -0.0181,-0.05115 -0.0362,-0.200089 -0.005,-0.159482 -0.0197,-0.234702 -0.31076,-1.627785 -1.82746,-1.816598 -0.96298,-0.119881 -1.64567,0.6508 -0.67065,0.77218 -0.86096,2.300915 -0.19031,1.528735 0.29912,2.40866 0.48942,0.879926 1.53667,1.010296 0.83057,0.103398 1.47734,-0.280592 0.65881,-0.382491 0.95031,-1.152975 0.021,-0.07072 0.0435,-0.153488 0.0361,-0.0933 0.0406,-0.129413 0.0165,-0.03461 0.0451,-0.06773 0.0301,-0.04515 0.0677,-0.05269 0.0512,-0.01808 0.12487,-0.02113 0.0737,-0.003 0.1941,0.01194 l 1.1315,0.140861 q 0.20464,0.02547 0.26033,0.06908 0.0692,0.03307 0.0572,0.129364 -0.003,0.02407 -0.054,0.237748 z"
         style="font-style:normal;letter-spacing:4px;fill:#000000;fill-opacity:1;stroke-width:0.649832"
         id="path903" />
      <path
         inkscape:connector-curvature="0"
         d="m 404.38864,35.562133 -4.23342,-0.642924 q -0.0959,-0.01457 -0.23985,-0.03643 -0.13374,-0.008 -0.18171,-0.01533 -0.21587,-0.03278 -0.28525,-0.141475 -0.0556,-0.118862 -0.008,-0.430671 l 0.11474,-0.75554 q 0.0364,-0.239854 0.0935,-0.292532 0.0571,-0.05268 0.22497,-0.02718 l 0.52768,0.08014 q 0.44373,0.06739 0.5506,0.01 0.12068,-0.06756 0.16986,-0.391359 l 0.76313,-5.024937 q 0.0346,-0.227861 0.004,-0.269303 -0.0287,-0.05344 -0.25656,-0.08804 -0.76753,-0.116564 -1.14339,0.09628 -0.36387,0.214663 -0.5571,0.921475 -0.0229,0.07013 -0.0448,0.214048 l -0.0346,0.227861 q -0.0255,0.167897 -0.0659,0.272189 -0.0385,0.0923 -0.17123,0.158034 -0.11886,0.05557 -0.32274,0.0246 l -0.6476,-0.09835 q -0.22786,-0.0346 -0.29254,-0.0935 -0.0508,-0.06907 -0.0272,-0.224975 0.005,-0.03598 0.02,-0.13192 0.0284,-0.106113 0.0393,-0.178069 l 0.42073,-2.770311 q 0.0419,-0.275832 0.11278,-0.338681 0.0727,-0.07484 0.26459,-0.0457 l 8.34691,1.267634 q 0.38377,0.05828 0.43281,0.139345 0.061,0.08288 9.2e-4,0.478643 l -0.37155,2.446508 q -0.0146,0.09594 -0.0364,0.239854 -0.01,0.145734 -0.0172,0.193704 -0.031,0.203876 -0.13966,0.273254 -0.0949,0.05921 -0.40668,0.01185 l -0.46772,-0.07103 q -0.19188,-0.02914 -0.29617,-0.06952 -0.0923,-0.03856 -0.12752,-0.12979 -0.0352,-0.09123 -0.0381,-0.153019 0.0109,-0.07196 0.0364,-0.239854 0.0255,-0.167898 0.0299,-0.277653 0.0537,-0.838423 -0.23654,-1.189237 -0.27827,-0.348993 -1.08178,-0.471021 -0.19189,-0.02914 -0.26278,0.03371 -0.0589,0.06467 -0.0862,0.244561 l -0.71942,4.737112 q -0.0146,0.09594 -0.0484,0.238033 -0.02,0.131919 -0.0273,0.17989 -0.0273,0.179891 0.0439,0.276589 0.073,0.0847 0.32486,0.122952 l 0.63562,0.09653 q 0.27583,0.04189 0.32486,0.122953 0.049,0.08106 -0.006,0.440843 l -0.082,0.539671 q -0.0583,0.383766 -0.14481,0.46878 -0.0865,0.08501 -0.37435,0.0413 z"
         style="font-style:normal;letter-spacing:4px;fill:#000000;fill-opacity:1;stroke-width:0.649832"
         id="path905" />
      <path
         inkscape:connector-curvature="0"
         d="m 416.72849,30.325968 -0.91141,5.1111 q -0.0639,0.358254 -0.017,0.440553 0.0469,0.0823 0.33354,0.133405 l 0.82399,0.146933 q 0.21495,0.03833 0.2542,0.09462 0.0533,0.04647 0.0256,0.201716 l -0.15759,0.883695 q -0.0426,0.238837 -0.10313,0.30197 -0.0584,0.05119 -0.23754,0.01925 l -5.17081,-0.922059 q -0.23884,-0.04259 -0.29216,-0.08906 -0.0392,-0.05628 -0.007,-0.235413 l 0.16822,-0.943404 q 0.0319,-0.179127 0.0904,-0.230318 0.0704,-0.04906 0.18977,-0.02777 0.0358,0.0064 0.12924,0.03537 0.0955,0.01703 0.15524,0.02768 l 0.57321,0.102214 q 0.25077,0.04472 0.30706,0.0055 0.0584,-0.05119 0.11165,-0.349736 l 0.93697,-5.254402 q 0.0383,-0.214953 0.011,-0.269109 -0.0273,-0.05416 -0.19449,-0.08397 l -0.85981,-0.153322 q -0.2269,-0.04046 -0.28022,-0.08693 -0.0393,-0.05629 -0.009,-0.223471 l 0.18314,-1.026997 q 0.0255,-0.143302 0.0678,-0.172739 0.0444,-0.04138 0.13988,-0.02434 0.0239,0.0043 0.0934,0.02898 0.0716,0.01278 0.11942,0.02129 l 4.97974,0.887988 q 0.0478,0.0085 0.13136,0.02342 0.0857,0.003 0.12154,0.0094 0.17913,0.03194 0.14932,0.199127 l -0.2023,1.134474 q -0.0256,0.143302 -0.0797,0.170609 -0.0401,0.0175 -0.23115,-0.01658 l -0.97923,-0.174616 q -0.21496,-0.03833 -0.27124,9.19e-4 -0.0443,0.04138 -0.0912,0.304099 z"
         style="font-style:normal;letter-spacing:4px;fill:#000000;fill-opacity:1;stroke-width:0.649832"
         id="path907" />
      <path
         inkscape:connector-curvature="0"
         d="m 428.60824,37.347005 q 0.16277,-0.300316 0.62457,-0.958895 l 2.03117,-2.917742 q 0.0363,-0.05431 0.10136,-0.127333 0.065,-0.07302 0.0988,-0.115465 0.0482,-0.0518 0.0557,-0.0874 0.0251,-0.118672 -0.27155,-0.181479 l -0.28482,-0.06029 q -0.26107,-0.05527 -0.30101,-0.100921 -0.0256,-0.05501 0.0297,-0.316084 l 0.21606,-1.020578 q 0.0327,-0.154274 0.0902,-0.191693 0.0575,-0.03742 0.16433,-0.01481 0.0356,0.0075 0.11616,0.03699 0.0831,0.01759 0.1424,0.03015 l 3.25161,0.688364 q 0.11868,0.02512 0.14423,0.08013 0.0374,0.05752 -0.003,0.247393 l -0.23364,1.103649 q -0.0276,0.130539 -0.097,0.165447 -0.055,0.02555 -0.24488,-0.01464 l -0.45095,-0.09547 q -0.26108,-0.05527 -0.36607,-0.0279 -0.0906,0.01802 -0.21387,0.190305 l -4.33305,6.00136 q -0.0338,0.04244 -0.12578,0.184156 -0.0776,0.132357 -0.12578,0.184156 -0.0363,0.05431 -0.15566,0.09104 -0.1075,0.03924 -0.24991,0.0091 l -1.63767,-0.346695 q -0.16614,-0.03517 -0.27043,-0.06965 -0.10429,-0.03448 -0.16042,-0.120755 -0.0468,-0.0719 -0.063,-0.112523 -0.0162,-0.04063 -0.0479,-0.183727 -0.0173,-0.152455 -0.0285,-0.216816 l -1.40019,-7.091094 q -0.007,-0.02625 -0.0274,-0.104986 -0.009,-0.07623 -0.018,-0.09061 0.005,-0.02374 -0.009,-0.07623 -0.0137,-0.05249 -0.023,-0.06687 -0.009,-0.01438 -0.0399,-0.04565 -0.0281,-0.04314 -0.0637,-0.05067 -0.0237,-0.005 -0.0806,-0.02945 -0.0424,-0.03378 -0.10178,-0.04635 -0.0593,-0.01256 -0.1424,-0.03015 l -0.52216,-0.11054 q -0.29668,-0.06281 -0.35532,-0.137217 -0.0586,-0.07441 -0.0134,-0.288019 l 0.20852,-0.984977 q 0.0402,-0.189875 0.0858,-0.229807 0.0456,-0.03993 0.17618,-0.0123 l 5.05543,1.070231 q 0.0593,0.01256 0.16614,0.03517 0.12118,0.01326 0.15678,0.02079 0.13054,0.02764 0.16545,0.09702 0.0493,0.06003 0.0141,0.226171 l -0.19596,0.925641 q -0.0653,0.308547 -0.14909,0.352809 -0.0694,0.03491 -0.40166,-0.03544 l -0.49842,-0.105516 q -0.37975,-0.08039 -0.40488,0.03828 -0.003,0.01187 0.0714,0.424277 l 0.51161,3.381654 q 0.10601,0.729188 0.108,1.188372 0.007,0.261772 0.0896,0.279358 0.10681,0.02261 0.23579,-0.235261 z"
         style="font-style:normal;letter-spacing:4px;fill:#000000;fill-opacity:1;stroke-width:0.649832"
         id="path909" />
      <path
         inkscape:connector-curvature="0"
         d="m 440.46023,35.069284 -0.55226,-0.141595 q -0.282,-0.0723 -0.34045,-0.13738 -0.0554,-0.07683 -10e-4,-0.288329 l 0.24101,-0.940011 q 0.0542,-0.211502 0.11629,-0.258202 0.0621,-0.0467 0.20307,-0.01055 l 8.3896,2.15103 q 0.27025,0.06929 0.30219,0.140092 0.0319,0.0708 -0.0464,0.376305 l -0.67483,2.632031 q -0.012,0.047 -0.0331,0.129251 -0.006,0.07351 -0.0123,0.09701 -0.0271,0.105751 -0.0862,0.140701 -0.056,0.0232 -0.22054,-0.01898 l -0.89301,-0.228961 q -0.11751,-0.03013 -0.18499,-0.05995 -0.0557,-0.02681 -0.10274,-0.03886 -0.044,-0.0238 -0.0524,-0.08858 0.003,-0.06176 -0.005,-0.07653 0.006,-0.0235 0.0244,-0.144014 0.0331,-0.129251 0.0452,-0.176252 0.14008,-0.790572 -0.13409,-1.186455 -0.25941,-0.404621 -1.14067,-0.630569 l -1.42177,-0.364531 q -0.34075,-0.08737 -0.4221,0.229887 l -0.39767,1.551018 q -0.0452,0.176252 -0.0398,0.252778 0.0172,0.07954 0.12292,0.106653 0.0823,0.02109 0.20879,0.01597 0.74719,0.01626 1.1274,-0.587523 0.0446,-0.07623 0.0834,-0.178965 0.0419,-0.114488 0.0657,-0.158476 0.0238,-0.04399 0.10334,-0.06116 0.0826,-0.02892 0.22355,0.0072 l 0.41126,0.105443 q 0.27025,0.06929 0.32569,0.146118 0.0702,0.06809 0.01,0.303091 l -0.82848,3.231288 q -0.0633,0.246753 -0.16058,0.284415 -0.0973,0.03766 -0.43807,-0.0497 l -0.3525,-0.09038 q -0.12926,-0.03314 -0.19072,-0.08646 -0.0497,-0.05031 -0.0494,-0.100327 3e-4,-0.05001 0.0157,-0.158777 0.0271,-0.105752 0.0217,-0.182278 -0.0166,-0.667947 -0.52033,-1.047556 -0.23139,-0.17203 -0.33714,-0.199144 -0.188,-0.0482 -0.27236,0.280802 l -0.42177,1.645019 q -0.0482,0.188002 -0.005,0.261816 0.0437,0.07381 0.17293,0.106953 0.0353,0.009 0.12926,0.03314 0.10876,0.01536 0.17926,0.03344 l 1.09276,0.280176 q 1.06927,0.274151 1.5477,-0.02895 0.4932,-0.311837 0.78754,-1.313311 0.084,-0.278991 0.15786,-0.322678 0.0768,-0.05544 0.28833,-0.0012 l 0.90476,0.231974 q 0.188,0.0482 0.23169,0.122016 0.0467,0.06206 0.0166,0.179565 -0.009,0.03525 -0.0419,0.114489 -0.0211,0.08225 -0.0362,0.141001 l -0.72906,2.843534 q -0.0904,0.352504 -0.17896,0.404929 -0.0768,0.05544 -0.39408,-0.0259 l -8.40135,-2.154044 q -0.1645,-0.04218 -0.19644,-0.112978 -0.0319,-0.0708 0.0283,-0.305804 l 0.24101,-0.940011 q 0.0512,-0.199752 0.0985,-0.237715 0.0473,-0.03796 0.1883,-0.0018 l 0.70501,0.180759 q 0.27025,0.06929 0.3293,0.03434 0.0708,-0.03194 0.13106,-0.26694 l 1.26832,-4.946807 q 0.0663,-0.258503 0.0313,-0.317555 -0.0319,-0.0708 -0.25519,-0.128041 z"
         style="font-style:normal;letter-spacing:4px;fill:#000000;fill-opacity:1;stroke-width:0.649832"
         id="path911" />
    </g>
  </g>
</svg>
